<mxfile host="app.diagrams.net" modified="2024-05-20T06:19:50.735Z" agent="Mozilla/5.0 (Macintosh; Intel Mac OS X 10_15_7) AppleWebKit/537.36 (KHTML, like Gecko) Chrome/124.0.0.0 Safari/537.36" version="24.4.4" etag="ROHRva9PjL6kEuRGW0EJ" type="github">
  <diagram name="Page-1" id="csnjKpnQTlm4KgtaV6g5">
    <mxGraphModel>
      <root>
        <mxCell id="0" />
        <mxCell id="1" parent="0" />
      </root>
    </mxGraphModel>
  </diagram>
</mxfile>
